<mxfile host="app.diagrams.net" modified="2023-10-28T18:10:08.672Z" agent="Mozilla/5.0 (X11; CrOS x86_64 14541.0.0) AppleWebKit/537.36 (KHTML, like Gecko) Chrome/118.0.0.0 Safari/537.36" etag="SwRWa5FfGqVK5okmXjoi" version="22.0.8" type="device">
  <diagram name="Page-1" id="b5fcfGG7YMREnnzZonhc">
    <mxGraphModel dx="1162" dy="621" grid="1" gridSize="10" guides="1" tooltips="1" connect="1" arrows="1" fold="1" page="1" pageScale="1" pageWidth="850" pageHeight="1100" math="0" shadow="0">
      <root>
        <mxCell id="0" />
        <mxCell id="1" parent="0" />
        <mxCell id="948SyknNtqkOlMicQPDK-1" value="&lt;span style=&quot;color: rgb(0, 0, 0); font-family: Helvetica; font-size: 12px; font-style: normal; font-variant-ligatures: normal; font-variant-caps: normal; font-weight: 400; letter-spacing: normal; orphans: 2; text-align: center; text-indent: 0px; text-transform: none; widows: 2; word-spacing: 0px; -webkit-text-stroke-width: 0px; background-color: rgb(251, 251, 251); text-decoration-thickness: initial; text-decoration-style: initial; text-decoration-color: initial; float: none; display: inline !important;&quot;&gt;&lt;br&gt;&lt;br&gt;&lt;/span&gt;" style="rounded=1;whiteSpace=wrap;html=1;arcSize=1;" vertex="1" parent="1">
          <mxGeometry x="50" y="35" width="740" height="1050" as="geometry" />
        </mxCell>
        <mxCell id="948SyknNtqkOlMicQPDK-68" value="&lt;h3&gt;&lt;font face=&quot;Courier New&quot;&gt;FIRST NAME&lt;/font&gt;&lt;/h3&gt;" style="fillColor=none;strokeColor=none;html=1;fontSize=11;fontStyle=0;align=left;fontColor=#596780;fontStyle=1;fontSize=11" vertex="1" parent="1">
          <mxGeometry x="130" y="80" width="240" height="20" as="geometry" />
        </mxCell>
        <mxCell id="948SyknNtqkOlMicQPDK-69" value="" style="rounded=1;arcSize=9;align=left;spacingLeft=5;html=1;strokeWidth=2;fontSize=12;" vertex="1" parent="1">
          <mxGeometry x="230" y="80" width="450" height="20" as="geometry" />
        </mxCell>
        <mxCell id="948SyknNtqkOlMicQPDK-78" value="&lt;h3&gt;&lt;font face=&quot;Courier New&quot;&gt;MIDDLE NAME&lt;/font&gt;&lt;/h3&gt;" style="fillColor=none;strokeColor=none;html=1;fontSize=11;fontStyle=0;align=left;fontColor=#596780;fontStyle=1;fontSize=11" vertex="1" parent="1">
          <mxGeometry x="130" y="120" width="240" height="20" as="geometry" />
        </mxCell>
        <mxCell id="948SyknNtqkOlMicQPDK-80" value="&lt;h3&gt;&lt;font face=&quot;Courier New&quot;&gt;LAST NAME&lt;/font&gt;&lt;/h3&gt;" style="fillColor=none;strokeColor=none;html=1;fontSize=11;fontStyle=0;align=left;fontColor=#596780;fontStyle=1;fontSize=11" vertex="1" parent="1">
          <mxGeometry x="130" y="160" width="240" height="20" as="geometry" />
        </mxCell>
        <mxCell id="948SyknNtqkOlMicQPDK-82" value="&lt;h2&gt;&lt;font face=&quot;Courier New&quot;&gt;DATE OF BIRTH&lt;/font&gt;&lt;/h2&gt;" style="fillColor=none;strokeColor=none;html=1;fontSize=11;fontStyle=0;align=left;fontColor=#596780;fontStyle=1;fontSize=11;sketch=1;hachureGap=4;pointerEvents=0;fontFamily=Architects Daughter;fontSource=https%3A%2F%2Ffonts.googleapis.com%2Fcss%3Ffamily%3DArchitects%2BDaughter;" vertex="1" parent="1">
          <mxGeometry x="127.5" y="210" width="240" height="30" as="geometry" />
        </mxCell>
        <mxCell id="948SyknNtqkOlMicQPDK-83" value="" style="rounded=1;arcSize=9;fillColor=#fff2cc;align=left;spacingLeft=5;strokeColor=#d6b656;html=1;strokeWidth=2;fontSize=12;sketch=1;hachureGap=4;pointerEvents=0;fontFamily=Architects Daughter;fontSource=https%3A%2F%2Ffonts.googleapis.com%2Fcss%3Ffamily%3DArchitects%2BDaughter;" vertex="1" parent="1">
          <mxGeometry x="320" y="210" width="250" height="20" as="geometry" />
        </mxCell>
        <mxCell id="948SyknNtqkOlMicQPDK-84" value="" style="shape=mxgraph.gmdl.calendar;fillColor=#5A6881;strokeColor=none;sketch=0;hachureGap=4;pointerEvents=0;fontFamily=Architects Daughter;fontSource=https%3A%2F%2Ffonts.googleapis.com%2Fcss%3Ffamily%3DArchitects%2BDaughter;fontSize=20;" vertex="1" parent="948SyknNtqkOlMicQPDK-83">
          <mxGeometry x="1" y="0.5" width="18" height="18" relative="1" as="geometry">
            <mxPoint x="-29" y="-9" as="offset" />
          </mxGeometry>
        </mxCell>
        <mxCell id="948SyknNtqkOlMicQPDK-88" value="&lt;h2&gt;&lt;font face=&quot;Verdana&quot;&gt;&lt;i&gt;ADDRESS&amp;nbsp;&lt;/i&gt;&lt;/font&gt;&lt;/h2&gt;" style="fillColor=none;strokeColor=none;html=1;fontSize=11;fontStyle=0;align=left;fontColor=#596780;fontStyle=1;fontSize=11" vertex="1" parent="1">
          <mxGeometry x="127.5" y="260" width="240" height="20" as="geometry" />
        </mxCell>
        <mxCell id="948SyknNtqkOlMicQPDK-108" value="&lt;i&gt;&lt;font face=&quot;Verdana&quot;&gt;CITY&lt;/font&gt;&lt;/i&gt;" style="rounded=1;fillColor=#F1F2F4;strokeColor=none;html=1;whiteSpace=wrap;fontColor=#596780;align=left;fontSize=12;spacingLeft=10;sketch=0;" vertex="1" parent="1">
          <mxGeometry x="127.5" y="410" width="140" height="20" as="geometry" />
        </mxCell>
        <mxCell id="948SyknNtqkOlMicQPDK-109" value="" style="shape=triangle;direction=south;fillColor=#596780;strokeColor=none;html=1;sketch=0;" vertex="1" parent="948SyknNtqkOlMicQPDK-108">
          <mxGeometry x="1" y="0.5" width="12" height="6" relative="1" as="geometry">
            <mxPoint x="-20" y="-3" as="offset" />
          </mxGeometry>
        </mxCell>
        <mxCell id="948SyknNtqkOlMicQPDK-110" value="&lt;i&gt;&lt;font face=&quot;Verdana&quot;&gt;STATE&lt;/font&gt;&lt;/i&gt;" style="rounded=1;fillColor=#F1F2F4;strokeColor=none;html=1;whiteSpace=wrap;fontColor=#596780;align=left;fontSize=12;spacingLeft=10;sketch=0;" vertex="1" parent="1">
          <mxGeometry x="300" y="410" width="140" height="20" as="geometry" />
        </mxCell>
        <mxCell id="948SyknNtqkOlMicQPDK-111" value="" style="shape=triangle;direction=south;fillColor=#596780;strokeColor=none;html=1;sketch=0;" vertex="1" parent="948SyknNtqkOlMicQPDK-110">
          <mxGeometry x="1" y="0.5" width="12" height="6" relative="1" as="geometry">
            <mxPoint x="-20" y="-3" as="offset" />
          </mxGeometry>
        </mxCell>
        <mxCell id="948SyknNtqkOlMicQPDK-122" value="&lt;i&gt;&lt;font face=&quot;Verdana&quot;&gt;BLOOD GROUP&amp;nbsp;&lt;/font&gt;&lt;/i&gt;" style="fillColor=none;strokeColor=none;html=1;fontSize=11;fontStyle=0;align=left;fontColor=#596780;fontStyle=1;fontSize=11" vertex="1" parent="1">
          <mxGeometry x="127.5" y="470" width="240" height="20" as="geometry" />
        </mxCell>
        <mxCell id="948SyknNtqkOlMicQPDK-124" value="&lt;font face=&quot;Verdana&quot;&gt;&lt;i&gt;ID PROOF&amp;nbsp;&lt;/i&gt;&lt;/font&gt;" style="fillColor=none;strokeColor=none;html=1;fontSize=11;fontStyle=0;align=left;fontColor=#596780;fontStyle=1;fontSize=11" vertex="1" parent="1">
          <mxGeometry x="127.5" y="500" width="125" height="20" as="geometry" />
        </mxCell>
        <mxCell id="948SyknNtqkOlMicQPDK-127" value="&lt;h3&gt;&lt;font face=&quot;Verdana&quot;&gt;CONTACT DETAILS&amp;nbsp;&lt;/font&gt;&lt;/h3&gt;" style="fillColor=none;strokeColor=none;html=1;fontSize=11;fontStyle=0;align=left;fontColor=#596780;fontStyle=1;fontSize=11" vertex="1" parent="1">
          <mxGeometry x="127.5" y="550" width="240" height="20" as="geometry" />
        </mxCell>
        <mxCell id="948SyknNtqkOlMicQPDK-129" value="" style="rounded=1;arcSize=9;align=left;spacingLeft=5;html=1;strokeWidth=2;fontSize=12;" vertex="1" parent="1">
          <mxGeometry x="230" y="120" width="450" height="20" as="geometry" />
        </mxCell>
        <mxCell id="948SyknNtqkOlMicQPDK-130" value="" style="rounded=1;arcSize=9;align=left;spacingLeft=5;html=1;strokeWidth=2;fontSize=12;" vertex="1" parent="1">
          <mxGeometry x="230" y="160" width="450" height="20" as="geometry" />
        </mxCell>
        <mxCell id="948SyknNtqkOlMicQPDK-131" value="ADDRESS !" style="rounded=1;arcSize=9;align=left;spacingLeft=5;html=1;strokeWidth=2;fontSize=12;" vertex="1" parent="1">
          <mxGeometry x="130" y="310" width="560" height="20" as="geometry" />
        </mxCell>
        <mxCell id="948SyknNtqkOlMicQPDK-132" value="LANDMARK" style="rounded=1;arcSize=9;align=left;spacingLeft=5;html=1;strokeWidth=2;fontSize=12;" vertex="1" parent="1">
          <mxGeometry x="130" y="370" width="560" height="20" as="geometry" />
        </mxCell>
        <mxCell id="948SyknNtqkOlMicQPDK-133" value="ADDRESS 2&amp;nbsp;" style="rounded=1;arcSize=9;align=left;spacingLeft=5;html=1;strokeWidth=2;fontSize=12;" vertex="1" parent="1">
          <mxGeometry x="130" y="340" width="560" height="20" as="geometry" />
        </mxCell>
        <mxCell id="948SyknNtqkOlMicQPDK-135" value="PINCODE" style="rounded=1;arcSize=9;align=right;spacingLeft=5;html=1;strokeWidth=2;fontSize=12;" vertex="1" parent="1">
          <mxGeometry x="470" y="410" width="220" height="20" as="geometry" />
        </mxCell>
        <mxCell id="948SyknNtqkOlMicQPDK-136" value="" style="rounded=1;arcSize=9;align=left;spacingLeft=5;html=1;strokeWidth=2;fontSize=12;" vertex="1" parent="1">
          <mxGeometry x="240" y="470" width="450" height="20" as="geometry" />
        </mxCell>
        <mxCell id="948SyknNtqkOlMicQPDK-137" value="PAN Number/ Driving License No./ Aadhaar Card No." style="rounded=1;arcSize=9;align=left;spacingLeft=5;html=1;strokeWidth=2;fontSize=12;" vertex="1" parent="1">
          <mxGeometry x="240" y="500" width="450" height="20" as="geometry" />
        </mxCell>
        <mxCell id="948SyknNtqkOlMicQPDK-138" value="" style="rounded=1;arcSize=9;align=left;spacingLeft=5;html=1;strokeWidth=2;fontSize=12;" vertex="1" parent="1">
          <mxGeometry x="320" y="580" width="370" height="20" as="geometry" />
        </mxCell>
        <mxCell id="948SyknNtqkOlMicQPDK-139" value="&lt;i&gt;Primary Contact Number&lt;/i&gt;" style="fillColor=none;strokeColor=none;html=1;fontSize=11;fontStyle=0;align=left;fontColor=#596780;fontStyle=1;fontSize=11" vertex="1" parent="1">
          <mxGeometry x="127.5" y="580" width="240" height="20" as="geometry" />
        </mxCell>
        <mxCell id="948SyknNtqkOlMicQPDK-141" value="&lt;font face=&quot;Verdana&quot;&gt;&lt;i&gt;Secondary Contact Number&lt;/i&gt;&lt;/font&gt;" style="fillColor=none;strokeColor=none;html=1;fontSize=11;fontStyle=0;align=left;fontColor=#596780;fontStyle=1;fontSize=11" vertex="1" parent="1">
          <mxGeometry x="127.5" y="610" width="240" height="20" as="geometry" />
        </mxCell>
        <mxCell id="948SyknNtqkOlMicQPDK-143" value="" style="rounded=1;arcSize=9;align=left;spacingLeft=5;html=1;strokeWidth=2;fontSize=12;" vertex="1" parent="1">
          <mxGeometry x="320" y="610" width="370" height="20" as="geometry" />
        </mxCell>
        <mxCell id="948SyknNtqkOlMicQPDK-144" value="&lt;font face=&quot;Verdana&quot;&gt;&lt;i&gt;EMAIL ID&amp;nbsp;&lt;/i&gt;&lt;/font&gt;" style="fillColor=none;strokeColor=none;html=1;fontSize=11;fontStyle=0;align=left;fontColor=#596780;fontStyle=1;fontSize=11" vertex="1" parent="1">
          <mxGeometry x="130" y="640" width="240" height="20" as="geometry" />
        </mxCell>
        <mxCell id="948SyknNtqkOlMicQPDK-146" value="" style="rounded=1;arcSize=9;align=left;spacingLeft=5;html=1;strokeWidth=2;fontSize=12;" vertex="1" parent="1">
          <mxGeometry x="320" y="640" width="370" height="20" as="geometry" />
        </mxCell>
        <mxCell id="948SyknNtqkOlMicQPDK-148" value="&lt;i&gt;&lt;font face=&quot;Verdana&quot;&gt;Insurance Details&lt;/font&gt;&lt;/i&gt;" style="fillColor=none;strokeColor=none;html=1;fontSize=11;fontStyle=0;align=left;fontColor=#596780;fontStyle=1;fontSize=11" vertex="1" parent="1">
          <mxGeometry x="130" y="680" width="240" height="20" as="geometry" />
        </mxCell>
        <mxCell id="948SyknNtqkOlMicQPDK-150" value="" style="rounded=1;arcSize=9;align=left;spacingLeft=5;html=1;strokeWidth=2;fontSize=12;" vertex="1" parent="1">
          <mxGeometry x="130" y="720" width="550" height="20" as="geometry" />
        </mxCell>
        <UserObject label="&lt;font face=&quot;Verdana&quot;&gt;Have you undergone any surgery before&lt;/font&gt;" placeholders="1" name="Variable" id="948SyknNtqkOlMicQPDK-151">
          <mxCell style="text;html=1;strokeColor=none;fillColor=none;align=left;verticalAlign=middle;whiteSpace=wrap;overflow=hidden;" vertex="1" parent="1">
            <mxGeometry x="127.5" y="770" width="322.5" height="20" as="geometry" />
          </mxCell>
        </UserObject>
        <mxCell id="948SyknNtqkOlMicQPDK-152" value="yes&amp;nbsp;" style="html=1;shadow=0;dashed=0;shape=mxgraph.bootstrap.radioButton2;labelPosition=right;verticalLabelPosition=middle;align=left;verticalAlign=middle;gradientColor=#DEDEDE;fillColor=#EDEDED;checked=0;spacing=5;checkedFill=#0085FC;checkedStroke=#ffffff;" vertex="1" parent="1">
          <mxGeometry x="450" y="770" width="10" height="10" as="geometry" />
        </mxCell>
        <mxCell id="948SyknNtqkOlMicQPDK-153" value="no&amp;nbsp;" style="html=1;shadow=0;dashed=0;shape=mxgraph.bootstrap.radioButton2;labelPosition=right;verticalLabelPosition=middle;align=left;verticalAlign=middle;gradientColor=#DEDEDE;fillColor=#EDEDED;checked=0;spacing=5;checkedFill=#0085FC;checkedStroke=#ffffff;" vertex="1" parent="1">
          <mxGeometry x="550" y="770" width="10" height="10" as="geometry" />
        </mxCell>
        <mxCell id="948SyknNtqkOlMicQPDK-162" value="&lt;i&gt;&lt;font face=&quot;Verdana&quot;&gt;If yes, then give details&lt;/font&gt;&lt;/i&gt;" style="fillColor=none;strokeColor=none;html=1;fontSize=11;fontStyle=0;align=left;fontColor=#596780;fontStyle=1;fontSize=11" vertex="1" parent="1">
          <mxGeometry x="140" y="800" width="240" height="20" as="geometry" />
        </mxCell>
        <mxCell id="948SyknNtqkOlMicQPDK-164" value="" style="rounded=1;arcSize=9;align=left;spacingLeft=5;html=1;strokeWidth=2;fontSize=12;" vertex="1" parent="1">
          <mxGeometry x="330" y="800" width="370" height="20" as="geometry" />
        </mxCell>
        <mxCell id="948SyknNtqkOlMicQPDK-166" value="yes&amp;nbsp;" style="html=1;shadow=0;dashed=0;shape=mxgraph.bootstrap.radioButton2;labelPosition=right;verticalLabelPosition=middle;align=left;verticalAlign=middle;gradientColor=#DEDEDE;fillColor=#EDEDED;checked=0;spacing=5;checkedFill=#0085FC;checkedStroke=#ffffff;" vertex="1" parent="1">
          <mxGeometry x="450" y="835" width="10" height="10" as="geometry" />
        </mxCell>
        <mxCell id="948SyknNtqkOlMicQPDK-167" value="no" style="html=1;shadow=0;dashed=0;shape=mxgraph.bootstrap.radioButton2;labelPosition=right;verticalLabelPosition=middle;align=left;verticalAlign=middle;gradientColor=#DEDEDE;fillColor=#EDEDED;checked=0;spacing=5;checkedFill=#0085FC;checkedStroke=#ffffff;" vertex="1" parent="1">
          <mxGeometry x="550" y="835" width="10" height="10" as="geometry" />
        </mxCell>
        <UserObject label="&lt;font face=&quot;Verdana&quot;&gt;Are you allergic to any medicines&lt;/font&gt;" placeholders="1" name="Variable" id="948SyknNtqkOlMicQPDK-168">
          <mxCell style="text;html=1;strokeColor=none;fillColor=none;align=left;verticalAlign=middle;whiteSpace=wrap;overflow=hidden;" vertex="1" parent="1">
            <mxGeometry x="127.5" y="830" width="220" height="20" as="geometry" />
          </mxCell>
        </UserObject>
        <mxCell id="948SyknNtqkOlMicQPDK-169" value="&lt;i&gt;&lt;font face=&quot;Verdana&quot;&gt;&amp;nbsp;If yes, then give details&lt;/font&gt;&lt;/i&gt;" style="fillColor=none;strokeColor=none;html=1;fontSize=11;fontStyle=0;align=left;fontColor=#596780;fontStyle=1;fontSize=11" vertex="1" parent="1">
          <mxGeometry x="140" y="870" width="240" height="20" as="geometry" />
        </mxCell>
        <mxCell id="948SyknNtqkOlMicQPDK-171" value="" style="rounded=1;arcSize=9;align=left;spacingLeft=5;html=1;strokeWidth=2;fontSize=12;" vertex="1" parent="1">
          <mxGeometry x="330" y="870" width="370" height="20" as="geometry" />
        </mxCell>
        <mxCell id="948SyknNtqkOlMicQPDK-179" value="RESET" style="strokeWidth=1;shadow=0;dashed=0;align=center;html=1;shape=mxgraph.mockup.buttons.button;strokeColor=#666666;fontColor=#ffffff;mainText=;buttonStyle=round;fontSize=17;fontStyle=1;fillColor=#1c68a6;whiteSpace=wrap;" vertex="1" parent="1">
          <mxGeometry x="360" y="940" width="150" height="40" as="geometry" />
        </mxCell>
        <mxCell id="948SyknNtqkOlMicQPDK-180" value="SAVE&amp;nbsp;" style="strokeWidth=1;shadow=0;dashed=0;align=center;html=1;shape=mxgraph.mockup.buttons.button;strokeColor=#666666;fontColor=#ffffff;mainText=;buttonStyle=round;fontSize=17;fontStyle=1;fillColor=#15609e;whiteSpace=wrap;" vertex="1" parent="1">
          <mxGeometry x="570" y="1010" width="150" height="40" as="geometry" />
        </mxCell>
        <mxCell id="948SyknNtqkOlMicQPDK-181" value="CANCEL" style="strokeWidth=1;shadow=0;dashed=0;align=center;html=1;shape=mxgraph.mockup.buttons.button;strokeColor=#666666;fontColor=#ffffff;mainText=;buttonStyle=round;fontSize=17;fontStyle=1;fillColor=#15609d;whiteSpace=wrap;" vertex="1" parent="1">
          <mxGeometry x="570" y="940" width="150" height="40" as="geometry" />
        </mxCell>
      </root>
    </mxGraphModel>
  </diagram>
</mxfile>
